HIERARCHY
ROOT joint_Root
{
	OFFSET 0.0 0.0 0.0
	CHANNELS 6 Xposition Yposition Zposition Zrotation Xrotation Yrotation 
	JOINT Hips
	{
		OFFSET 4.5925 91.4895 -427.239
		CHANNELS 6 Xposition Yposition Zposition Zrotation Xrotation Yrotation 
		JOINT Spine
		{
			OFFSET 15.7357 0.0 0.0
			CHANNELS 6 Xposition Yposition Zposition Zrotation Xrotation Yrotation 
			JOINT Chest
			{
				OFFSET 8.98455 -0.406207 0.0
				CHANNELS 6 Xposition Yposition Zposition Zrotation Xrotation Yrotation 
				JOINT Neck
				{
					OFFSET 16.3773 0.0 0.0
					CHANNELS 6 Xposition Yposition Zposition Zrotation Xrotation Yrotation 
					JOINT Head
					{
						OFFSET 6.45672 0.0 0.0
						CHANNELS 6 Xposition Yposition Zposition Zrotation Xrotation Yrotation 
						End Site
						{
							OFFSET 0.0 0.0 0.0
						}
					}
				}
				JOINT Shoulder_L
				{
					OFFSET 12.9942 -0.242716 4.98039
					CHANNELS 6 Xposition Yposition Zposition Zrotation Xrotation Yrotation 
					JOINT UpperArm_L
					{
						OFFSET 5.34809 0.0 0.0
						CHANNELS 6 Xposition Yposition Zposition Zrotation Xrotation Yrotation 
						JOINT LowerArm_L
						{
							OFFSET 24.3286 1.87007e-05 0.0
							CHANNELS 6 Xposition Yposition Zposition Zrotation Xrotation Yrotation 
							JOINT Hand_L
							{
								OFFSET 22.2916 0.0 0.0
								CHANNELS 6 Xposition Yposition Zposition Zrotation Xrotation Yrotation 
								End Site
								{
									OFFSET 0.0 0.0 0.0
								}
							}
						}
					}
				}
				JOINT Shoulder_R
				{
					OFFSET 12.9945 -0.242716 -4.98039
					CHANNELS 6 Xposition Yposition Zposition Zrotation Xrotation Yrotation 
					JOINT UpperArm_R
					{
						OFFSET -5.34813 0.0 0.0
						CHANNELS 6 Xposition Yposition Zposition Zrotation Xrotation Yrotation 
						JOINT LowerArm_R
						{
							OFFSET -24.3289 0.000322201 0.0
							CHANNELS 6 Xposition Yposition Zposition Zrotation Xrotation Yrotation 
							JOINT Hand_R
							{
								OFFSET -22.2915 -0.000108084 0.0
								CHANNELS 6 Xposition Yposition Zposition Zrotation Xrotation Yrotation 
								End Site
								{
									OFFSET 0.0 0.0 0.0
								}
							}
						}
					}
				}
			}
		}
		JOINT UpperLeg_L
		{
			OFFSET -2.19248 -6.46944 0.0
			CHANNELS 6 Xposition Yposition Zposition Zrotation Xrotation Yrotation 
			JOINT LowerLeg_L
			{
				OFFSET 39.0811 0.0 -1.23785e-05
				CHANNELS 6 Xposition Yposition Zposition Zrotation Xrotation Yrotation 
				JOINT Foot_L
				{
					OFFSET 40.9854 0.0 -1.26872e-05
					CHANNELS 6 Xposition Yposition Zposition Zrotation Xrotation Yrotation 
					JOINT Toes_L
					{
						OFFSET 11.7543 0.0 0.0
						CHANNELS 6 Xposition Yposition Zposition Zrotation Xrotation Yrotation 
						End Site
						{
							OFFSET 0.0 0.0 0.0
						}
					}
				}
			}
		}
		JOINT UpperLeg_R
		{
			OFFSET -2.19251 6.46944 0.0
			CHANNELS 6 Xposition Yposition Zposition Zrotation Xrotation Yrotation 
			JOINT LowerLeg_R
			{
				OFFSET -39.0811 -0.00228153 -0.0401928
				CHANNELS 6 Xposition Yposition Zposition Zrotation Xrotation Yrotation 
				JOINT Foot_R
				{
					OFFSET -40.9854 0.0 0.0
					CHANNELS 6 Xposition Yposition Zposition Zrotation Xrotation Yrotation 
					JOINT Toes_R
					{
						OFFSET -11.7543 0.0 0.0
						CHANNELS 6 Xposition Yposition Zposition Zrotation Xrotation Yrotation 
						End Site
						{
							OFFSET 0.0 0.0 0.0
						}
					}
				}
			}
		}
	}
}
MOTION
Frames:	7
Frame Time:	0.0333333
0.000000 0.000000 0.000000 0.000000 0.000000 -0.000000 -0.953381 90.529100 6.225400 89.547300 0.255544 7.999310 15.735700 0.000005 -0.000001 83.506200 88.182800 -84.618500 8.984550 -0.406207 -0.000000 -4.156890 -0.295074 -2.236410 16.377300 -0.000001 -0.000001 4.478670 -4.504870 2.744340 6.456720 -0.000001 -0.000000 -0.112756 -5.201950 4.331480 12.994200 -0.242716 4.980390 -85.872100 -8.399560 -63.708400 5.348090 -0.000007 -0.000001 -47.678200 -48.065700 -66.501800 24.328600 0.000019 0.000005 3.265790 2.527440 -52.307100 22.291600 -0.000001 0.000005 18.957800 4.913360 9.124430 12.994500 -0.242716 -4.980390 91.885200 -5.170560 -69.938200 -5.348130 -0.000001 -0.000004 -61.326400 -53.389000 -77.879900 -24.328900 0.000322 -0.000009 -17.760800 -15.367600 -50.414200 -22.291500 -0.000108 -0.000004 27.967900 5.259550 1.205040 -2.192480 -6.469440 -0.000000 -174.965000 -9.319780 2.868590 39.081100 -0.000007 -0.000012 -0.209679 0.386106 28.504900 40.985400 -0.000006 -0.000013 -0.318303 4.849810 -73.287100 11.754300 -0.000000 0.000003 -0.000360 -0.003031 -16.689800 -2.192510 6.469440 -0.000001 173.335000 21.699700 -175.098000 -39.081100 -0.002282 -0.040193 -0.016863 0.038011 27.951200 -40.985400 0.000008 0.000006 7.047040 13.627500 -75.186600 -11.754300 -0.000006 -0.000006 -0.001889 -0.027324 -17.684200
0.000000 0.000000 0.000000 0.000000 0.000000 -0.000000 -1.028870 90.543300 6.395460 89.531300 0.379784 7.835890 15.735700 0.000005 -0.000001 84.624900 88.458800 -85.756600 8.984550 -0.406207 -0.000000 -4.697800 -0.165472 -2.271740 16.377300 -0.000001 -0.000001 4.232300 -4.647950 2.687170 6.456720 -0.000001 -0.000000 0.217923 -5.600130 4.326200 12.994200 -0.242716 4.980390 -84.532000 -10.731900 -62.795300 5.348090 -0.000007 -0.000001 -50.114500 -50.312600 -80.605200 24.328600 0.000019 0.000005 4.956010 2.703170 -61.429200 22.291600 -0.000001 0.000005 21.846700 5.024770 6.818560 12.994500 -0.242716 -4.980390 92.839500 -7.481240 -69.148100 -5.348130 -0.000001 -0.000004 -63.364800 -52.361300 -90.465900 -24.328900 0.000322 -0.000009 -15.135800 -9.173320 -59.508700 -22.291500 -0.000108 -0.000004 29.977300 5.396850 -2.803440 -2.192480 -6.469440 -0.000000 -174.839000 -9.447450 2.934550 39.081100 -0.000007 -0.000012 -0.211424 0.393019 28.278200 40.985400 -0.000006 -0.000013 -0.332543 5.114390 -73.275100 11.754300 -0.000000 0.000003 -0.000354 -0.002990 -16.688300 -2.192510 6.469440 -0.000001 173.289000 22.132100 -174.938000 -39.081100 -0.002282 -0.040193 -0.016849 0.038423 27.679900 -40.985400 0.000008 0.000006 7.145180 13.903700 -75.235900 -11.754300 -0.000006 -0.000006 -0.002068 -0.029566 -17.775300
0.000000 0.000000 0.000000 0.000000 0.000000 -0.000000 -1.080320 90.641300 6.276300 89.531900 0.203384 7.050320 15.735700 0.000005 -0.000001 89.989700 88.596800 -91.108000 8.984550 -0.406207 -0.000000 -4.957520 0.123581 -2.233000 16.377300 -0.000001 -0.000001 3.383830 -4.683480 2.567760 6.456720 -0.000001 -0.000000 -0.369691 -6.387170 4.549790 12.994200 -0.242716 4.980390 -83.136900 -12.853800 -61.586500 5.348090 -0.000007 -0.000001 -52.586400 -54.024200 -92.251700 24.328600 0.000019 0.000005 10.522400 4.329980 -67.850900 22.291600 -0.000001 0.000005 27.410500 5.209950 2.569240 12.994500 -0.242716 -4.980390 93.733400 -9.447800 -68.322000 -5.348130 -0.000001 -0.000004 -59.169400 -55.215700 -97.033600 -24.328900 0.000322 -0.000009 -11.911200 -5.151290 -66.957300 -22.291500 -0.000108 -0.000004 32.767700 5.592600 -10.642600 -2.192480 -6.469440 -0.000000 -174.943000 -9.621500 2.274980 39.081100 -0.000007 -0.000012 -0.204576 0.387393 27.838200 40.985400 -0.000006 -0.000013 -0.391509 5.084650 -72.953300 11.754300 -0.000000 0.000003 -0.000330 -0.002817 -16.682200 -2.192510 6.469440 -0.000001 173.906000 21.685300 -175.831000 -39.081100 -0.002282 -0.040193 0.001895 0.002731 27.345000 -40.985400 0.000008 0.000006 7.339590 13.426400 -74.973300 -11.754300 -0.000006 -0.000006 -0.002135 -0.030393 -17.809000
0.000000 0.000000 0.000000 0.000000 0.000000 -0.000000 -1.103480 90.852600 6.073690 89.486500 0.072525 5.355360 15.735700 0.000005 -0.000001 98.925700 89.154300 -100.041000 8.984550 -0.406207 -0.000000 -6.090370 0.396724 -2.211470 16.377300 -0.000001 -0.000001 3.147770 -4.838340 2.691570 6.456720 -0.000001 -0.000000 -0.950393 -6.880920 4.935510 12.994200 -0.242716 4.980390 -81.920900 -14.271500 -60.066100 5.348090 -0.000007 -0.000001 -56.785200 -54.763400 -100.361000 24.328600 0.000019 0.000005 17.850900 6.619060 -70.307300 22.291600 -0.000001 0.000005 34.051100 5.306440 -0.092151 12.994500 -0.242716 -4.980390 94.559400 -10.900300 -67.134700 -5.348130 -0.000001 -0.000004 -52.360400 -58.169000 -96.635100 -24.328900 0.000322 -0.000009 -6.697960 -2.486830 -69.717600 -22.291500 -0.000108 -0.000004 36.063300 5.681750 -20.197000 -2.192480 -6.469440 -0.000000 -175.283000 -9.517290 0.835083 39.081100 -0.000007 -0.000012 -0.195239 0.385121 26.883200 40.985400 -0.000006 -0.000013 -0.521122 4.736340 -72.282600 11.754300 -0.000000 0.000003 -0.000344 -0.002915 -16.685600 -2.192510 6.469440 -0.000001 174.820000 21.551000 -177.699000 -39.081100 -0.002282 -0.040193 0.003879 -0.001130 26.793500 -40.985400 0.000008 0.000006 7.153690 13.321800 -73.997400 -11.754300 -0.000006 -0.000006 -0.002241 -0.031694 -17.861900
0.000000 0.000000 0.000000 0.000000 0.000000 -0.000000 -1.137360 90.949200 6.107240 89.466900 0.108348 4.908550 15.735700 0.000005 -0.000001 99.580000 89.419600 -100.699000 8.984550 -0.406207 -0.000000 -6.617240 0.333197 -2.222670 16.377300 -0.000001 -0.000001 3.768710 -5.058320 3.059440 6.456720 -0.000001 -0.000000 -1.164910 -7.228520 5.185500 12.994200 -0.242716 4.980390 -81.885200 -14.154700 -59.754900 5.348090 -0.000007 -0.000001 -56.937300 -53.903000 -99.436000 24.328600 0.000019 0.000005 15.511100 6.441760 -67.979000 22.291600 -0.000001 0.000005 32.124100 5.299220 0.131128 12.994500 -0.242716 -4.980390 94.673900 -10.715700 -66.264700 -5.348130 -0.000001 -0.000004 -45.922200 -57.111100 -91.767900 -24.328900 0.000322 -0.000009 -7.825580 -3.462580 -66.312500 -22.291500 -0.000108 -0.000004 33.343500 5.675100 -17.658800 -2.192480 -6.469440 -0.000000 -175.210000 -9.962560 0.714157 39.081100 -0.000007 -0.000012 -0.189641 0.383989 26.283700 40.985400 -0.000006 -0.000013 -0.473825 5.160080 -71.987200 11.754300 -0.000000 0.000003 -0.000338 -0.002871 -16.684100 -2.192510 6.469440 -0.000001 174.925000 22.038700 -177.933000 -39.081100 -0.002282 -0.040193 0.004673 -0.002749 26.383900 -40.985400 0.000008 0.000006 7.331940 13.715900 -73.691000 -11.754300 -0.000006 -0.000006 -0.002406 -0.033687 -17.943000
0.000000 0.000000 0.000000 0.000000 0.000000 -0.000000 -1.224050 90.878200 6.129520 89.474000 0.109099 5.438440 15.735700 0.000005 -0.000001 85.925200 89.158200 -87.018900 8.984550 -0.406207 -0.000000 -6.085530 0.012648 -2.189430 16.377300 -0.000001 -0.000001 3.696460 -5.547200 3.509590 6.456720 -0.000001 -0.000000 -1.262750 -7.497390 5.400050 12.994200 -0.242716 4.980390 -82.731500 -12.986800 -60.423700 5.348090 -0.000007 -0.000001 -53.750800 -53.304000 -90.640500 24.328600 0.000019 0.000005 10.239200 5.511800 -61.980100 22.291600 -0.000001 0.000005 25.700400 5.209550 2.535120 12.994500 -0.242716 -4.980390 94.107300 -9.682540 -66.880500 -5.348130 -0.000001 -0.000004 -43.969000 -54.590500 -85.993000 -24.328900 0.000322 -0.000009 -10.348200 -6.696230 -57.446700 -22.291500 -0.000108 -0.000004 27.201100 5.618870 -12.315000 -2.192480 -6.469440 -0.000000 -174.910000 -10.475000 1.129740 39.081100 -0.000007 -0.000012 -0.193814 0.386228 26.648400 40.985400 -0.000006 -0.000013 -0.387487 5.735500 -72.188500 11.754300 -0.000000 0.000003 -0.000330 -0.002819 -16.682200 -2.192510 6.469440 -0.000001 174.705000 22.084600 -177.282000 -39.081100 -0.002282 -0.040193 0.002360 0.001912 26.410600 -40.985400 0.000008 0.000006 7.351170 13.786600 -74.095500 -11.754300 -0.000006 -0.000006 -0.002241 -0.031693 -17.861800
0.000000 0.000000 0.000000 0.000000 0.000000 -0.000000 -1.262340 90.751400 6.082470 89.590900 0.170197 6.460550 15.735700 0.000005 -0.000001 85.930800 88.548900 -87.019700 8.984550 -0.406207 -0.000000 -4.871050 -0.085726 -2.183160 16.377300 -0.000001 -0.000001 2.812280 -6.092840 3.676290 6.456720 -0.000001 -0.000000 -0.967984 -8.045690 5.914990 12.994200 -0.242716 4.980390 -84.009700 -11.352000 -61.939900 5.348090 -0.000007 -0.000001 -47.518300 -52.499200 -76.836600 24.328600 0.000019 0.000005 7.665920 5.887570 -52.679100 22.291600 -0.000001 0.000005 20.625000 5.057280 6.124090 12.994500 -0.242716 -4.980390 93.220600 -7.972310 -67.919900 -5.348130 -0.000001 -0.000004 -43.274600 -52.794900 -78.477900 -24.328900 0.000322 -0.000009 -9.596110 -9.319460 -46.243200 -22.291500 -0.000108 -0.000004 23.427400 5.481390 -5.722850 -2.192480 -6.469440 -0.000000 -174.843000 -10.233200 1.805680 39.081100 -0.000007 -0.000012 -0.201485 0.389957 27.325000 40.985400 -0.000006 -0.000013 -0.407867 5.638040 -72.511800 11.754300 -0.000000 0.000003 -0.000336 -0.002857 -16.683600 -2.192510 6.469440 -0.000001 174.124000 22.165000 -176.378000 -39.081100 -0.002282 -0.040193 -0.002428 0.011294 26.927200 -40.985400 0.000008 0.000006 7.391340 13.887200 -74.667500 -11.754300 -0.000006 -0.000006 -0.002241 -0.031696 -17.862000
